<?xml version="1.0" standalone="no"?>
<!DOCTYPE svg PUBLIC "-//W3C//DTD SVG 20010904//EN"
 "http://www.w3.org/TR/2001/REC-SVG-20010904/DTD/svg10.dtd">
<svg version="1.0" xmlns="http://www.w3.org/2000/svg"
 width="1080.000000pt" height="914.000000pt" viewBox="0 0 1080.000000 914.000000"
 preserveAspectRatio="xMidYMid meet">

<g transform="translate(0.000000,914.000000) scale(0.100000,-0.100000)"
fill="#000000" stroke="none">
<path d="M6589 9130 c-101 -12 -143 -40 -174 -113 -34 -83 -8 -261 60 -404
l34 -73 -32 0 c-40 0 -72 21 -92 61 -9 16 -20 29 -25 29 -14 0 -12 -48 2 -52
17 -6 0 -28 -23 -28 -13 0 -19 7 -19 24 0 27 -30 86 -44 86 -5 0 -15 8 -22 18
-12 15 -13 15 -14 0 0 -9 5 -18 12 -20 7 -3 9 -11 3 -24 -6 -15 -11 -6 -22 44
-14 59 -16 62 -44 62 -24 0 -29 4 -29 26 0 27 -14 46 -42 57 -10 3 -18 15 -18
26 0 15 -12 22 -50 32 -27 7 -50 18 -50 24 0 6 -35 19 -77 30 -43 10 -88 24
-100 32 -12 7 -34 13 -48 13 -14 0 -43 9 -65 20 -22 11 -55 20 -75 20 -31 0
-35 3 -35 25 0 23 -4 25 -40 25 -29 0 -40 -4 -40 -15 0 -12 -15 -15 -79 -15
-55 0 -81 4 -84 13 -3 9 -49 12 -196 10 -160 -2 -194 -5 -207 -18 -9 -9 -29
-19 -45 -22 -16 -3 -29 -9 -29 -14 0 -5 -6 -9 -13 -9 -7 0 -28 -15 -47 -33
-19 -19 -50 -42 -67 -52 -28 -16 -33 -25 -33 -56 0 -21 4 -39 9 -41 4 -1 26
-37 47 -78 21 -41 43 -79 50 -85 15 -14 75 -108 110 -175 16 -30 32 -57 35
-60 4 -3 10 -19 13 -37 12 -54 63 -166 80 -175 11 -6 15 -16 11 -29 -4 -11 -2
-19 4 -19 6 0 11 6 11 13 1 6 7 1 14 -13 l14 -24 5 24 c3 14 3 -12 0 -57 l-5
-83 30 0 c19 0 35 -7 41 -17 10 -17 10 -16 11 2 1 12 7 4 15 -20 8 -22 15 -41
15 -42 0 -2 11 -3 25 -3 14 0 25 -4 25 -10 0 -18 19 -10 25 11 4 13 1 27 -9
38 -9 10 -16 33 -16 52 l0 34 23 -26 c28 -32 46 -59 53 -81 4 -10 14 -18 23
-18 17 0 61 -50 61 -70 0 -5 6 -10 14 -10 7 0 27 -7 42 -15 32 -16 100 -20
106 -6 2 5 40 13 86 16 l82 8 0 -119 c0 -66 -4 -124 -8 -131 -5 -9 -16 -9 -45
0 -20 7 -37 15 -37 19 0 3 -18 9 -40 13 -22 4 -42 11 -46 16 -3 5 -21 9 -40 9
-24 0 -34 5 -34 15 0 11 -11 15 -40 15 -29 0 -40 4 -40 15 0 14 -34 33 -66 39
-7 1 -19 8 -28 15 -9 8 -19 11 -22 8 -7 -6 18 -47 28 -47 5 0 8 -9 8 -20 0
-11 3 -20 8 -20 4 0 23 -15 43 -34 20 -19 72 -52 116 -75 l81 -40 -5 -37 c-3
-21 -11 -44 -19 -51 -7 -8 -21 -27 -31 -43 -9 -17 -21 -30 -25 -30 -4 0 -8
-11 -8 -25 0 -22 4 -25 40 -25 29 0 40 -4 40 -15 0 -11 12 -15 48 -15 26 0 53
5 59 11 8 8 13 8 17 0 4 -6 34 -11 67 -11 32 0 59 -4 59 -10 0 -15 126 -137
150 -145 11 -3 20 -10 20 -14 0 -3 14 -15 30 -24 17 -10 30 -25 30 -33 0 -11
6 -13 21 -9 14 5 19 3 15 -3 -14 -23 29 -82 78 -107 44 -22 63 -25 156 -25
132 0 251 27 605 135 61 19 130 39 155 44 25 6 72 19 105 29 33 11 86 22 118
25 31 3 71 13 89 21 38 20 39 20 32 1 -4 -10 0 -15 15 -15 15 0 19 4 14 18 -6
15 -5 15 11 3 19 -16 112 -50 136 -51 8 0 33 -16 55 -36 22 -20 49 -40 60 -44
16 -7 11 -9 -20 -10 -22 0 -57 -7 -77 -14 -21 -8 -38 -10 -38 -5 0 5 -9 9 -20
9 -14 0 -18 -5 -13 -17 6 -15 4 -16 -8 -6 -15 12 -118 7 -129 -6 -11 -13 -79
-31 -118 -31 -23 0 -42 -4 -42 -9 0 -5 -18 -11 -40 -15 -22 -3 -40 -10 -40
-14 0 -4 -17 -16 -37 -27 -21 -11 -40 -22 -43 -25 -3 -4 -21 -12 -40 -20 -19
-8 -44 -22 -54 -32 -11 -10 -30 -18 -43 -18 -13 0 -23 -4 -23 -9 0 -5 -8 -12
-17 -15 -10 -3 -29 -16 -44 -28 -14 -13 -32 -27 -41 -33 -9 -5 -37 -25 -62
-42 -26 -18 -54 -33 -62 -33 -7 0 -14 -9 -14 -19 0 -19 -47 -61 -69 -61 -6 0
-11 -4 -11 -10 0 -5 -9 -19 -20 -30 -11 -11 -20 -24 -20 -30 0 -5 9 -10 20
-10 11 0 20 -7 20 -15 0 -8 5 -15 11 -15 21 0 69 34 69 50 1 24 36 60 59 60
12 0 21 6 21 15 0 8 9 15 19 15 11 0 22 4 26 9 3 5 19 12 35 16 16 4 38 17 49
31 22 28 31 30 31 9 0 -8 5 -15 10 -15 6 0 10 14 10 30 0 17 -4 30 -10 30 -5
0 -10 5 -10 10 0 6 18 10 40 10 22 0 40 5 40 10 0 6 7 10 15 10 23 0 140 42
143 51 2 5 9 9 16 9 16 0 66 23 66 31 0 4 21 12 48 19 26 7 51 17 57 21 5 5
26 9 46 9 21 0 40 4 43 9 3 4 22 11 43 14 21 4 63 14 93 23 61 18 100 19 178
3 34 -7 52 -15 52 -25 0 -12 10 -14 43 -10 44 5 107 -11 119 -30 4 -7 24 -15
43 -18 19 -4 35 -12 35 -19 0 -7 21 -24 48 -37 72 -38 112 -70 112 -92 0 -10
7 -21 15 -24 8 -4 15 -13 15 -21 0 -15 40 -57 78 -83 12 -8 22 -23 22 -33 0
-9 7 -20 15 -23 8 -4 15 -12 15 -20 0 -8 8 -14 18 -14 14 0 32 -27 67 -100 26
-55 52 -100 57 -100 5 0 7 4 4 9 -4 5 0 12 6 15 10 5 10 7 1 12 -7 3 -15 22
-19 42 -4 20 -11 43 -17 50 -5 6 -8 12 -6 12 2 1 53 3 112 5 94 4 115 8 157
31 27 15 68 46 90 70 41 44 119 166 153 237 43 93 55 111 97 153 24 24 52 44
62 44 10 0 18 6 18 13 0 6 12 20 28 29 51 32 66 43 86 61 25 22 94 57 113 57
7 0 13 3 13 8 0 4 41 23 92 42 96 35 106 41 170 101 41 40 50 78 19 86 -10 3
-24 21 -31 44 -7 21 -18 39 -24 39 -6 0 -20 16 -31 36 -10 19 -37 50 -59 67
-23 17 -52 42 -66 55 -14 14 -35 31 -47 39 -13 9 -23 22 -23 29 0 8 -7 14 -16
14 -8 0 -37 18 -63 40 -26 22 -55 40 -64 40 -9 0 -17 6 -17 13 -1 13 -84 67
-105 67 -7 0 -15 7 -19 15 -3 8 -12 15 -21 15 -8 0 -15 4 -15 8 0 4 -26 16
-57 27 -41 13 -74 34 -113 70 -30 28 -82 73 -115 101 -33 27 -81 68 -106 92
l-47 42 29 93 c46 147 62 248 57 367 -6 118 -22 170 -87 279 -51 86 -127 171
-153 171 -15 0 -6 -14 41 -62 70 -72 145 -211 161 -297 14 -78 12 -177 -6
-272 -15 -81 -94 -339 -113 -368 -13 -20 -103 -8 -210 28 -319 107 -816 409
-966 587 -67 79 -115 158 -87 140 9 -5 102 96 102 110 0 4 -15 -5 -32 -22 -27
-23 -25 -20 7 16 22 25 60 66 85 93 44 46 44 47 18 47 -22 0 -38 -15 -85 -75
-41 -54 -64 -75 -80 -75 -13 0 -82 20 -155 44 -228 75 -474 113 -619 96z m331
-45 c90 -15 263 -65 340 -99 39 -17 27 -22 -17 -6 -26 10 -27 9 -8 -5 11 -9
36 -20 57 -26 l38 -10 -65 -81 c-79 -101 -95 -133 -95 -195 0 -42 7 -59 57
-133 225 -333 695 -604 1172 -675 92 -14 106 -14 127 0 12 8 25 25 29 37 6 19
116 307 121 316 1 2 35 -30 75 -70 41 -41 113 -109 162 -152 100 -89 241 -260
280 -340 15 -30 32 -77 38 -104 28 -133 -71 -245 -256 -287 -81 -19 -306 -22
-445 -5 -101 12 -352 58 -360 66 -2 3 20 3 50 0 69 -7 42 2 -123 43 -126 30
-145 26 -37 -8 101 -31 50 -25 -64 9 -457 133 -697 269 -971 552 -55 56 -93
97 -86 90 29 -24 32 -11 5 23 -15 20 -29 33 -32 31 -3 -3 1 -13 9 -23 9 -11
10 -14 1 -9 -59 36 -363 462 -428 601 -83 179 -90 379 -16 437 15 12 16 11 3
-4 -17 -22 -3 -23 27 -2 12 8 20 19 17 24 -3 5 7 12 22 16 15 3 33 8 38 10 20
8 242 -6 335 -21z m-656 -989 c-3 -14 -10 -29 -15 -32 -10 -6 -12 59 -2 69 13
14 24 -10 17 -37z m-184 -41 c0 -19 -4 -35 -10 -35 -5 0 -10 18 -10 40 0 29
-4 40 -15 40 -9 0 -12 6 -8 16 10 26 43 -19 43 -61z m0 -230 c0 -8 -7 -15 -15
-15 -8 0 -15 7 -15 15 0 8 7 15 15 15 8 0 15 -7 15 -15z m80 -55 c0 -6 8 -5
20 2 17 11 23 9 42 -9 21 -22 21 -23 3 -43 -22 -24 -38 -25 -59 -5 -8 8 -18
15 -23 15 -4 0 -14 4 -22 9 -12 8 -12 12 -2 25 15 18 41 21 41 6z m449 -126
c44 -9 39 -24 -9 -24 -29 0 -40 4 -40 15 0 17 4 18 49 9z m1548 -320 c-3 -3
-12 -4 -19 -1 -8 3 -5 6 6 6 11 1 17 -2 13 -5z"/>
<path d="M6573 9093 c-13 -2 -23 -9 -23 -15 0 -6 12 -8 31 -4 17 3 62 6 100 6
39 0 69 4 69 10 0 10 -131 12 -177 3z"/>
<path d="M7170 9000 c8 -5 22 -10 30 -10 13 0 13 1 0 10 -8 5 -22 10 -30 10
-13 0 -13 -1 0 -10z"/>
<path d="M6754 8245 c46 -71 172 -218 141 -165 -4 8 -37 52 -72 97 -64 83
-104 122 -69 68z"/>
<path d="M7885 7411 c6 -5 24 -13 40 -17 39 -9 30 0 -15 15 -19 6 -30 7 -25 2z"/>
<path d="M2283 8700 c-18 -36 -45 -79 -60 -95 -15 -17 -37 -44 -47 -60 -11
-17 -29 -41 -40 -54 -12 -12 -28 -31 -36 -40 -8 -9 -27 -32 -41 -51 -15 -19
-41 -51 -58 -70 -17 -19 -31 -38 -31 -42 0 -4 -6 -13 -13 -20 -7 -7 -24 -29
-37 -48 -13 -19 -27 -37 -30 -40 -18 -15 -130 -188 -130 -201 0 -9 12 -22 28
-30 15 -8 29 -17 32 -20 3 -3 15 -11 28 -18 19 -10 21 -15 12 -27 -7 -7 -16
-11 -22 -8 -5 3 -16 0 -24 -7 -12 -10 -25 -10 -65 0 -29 8 -54 9 -59 5 -4 -5
-22 -36 -39 -68 -17 -33 -35 -64 -40 -70 -16 -21 -80 -212 -100 -301 -43 -182
-48 -214 -71 -455 -9 -92 -31 -244 -45 -305 -23 -103 -98 -272 -161 -366 -19
-28 -34 -54 -34 -58 0 -3 -25 -32 -54 -64 -55 -60 -106 -96 -106 -74 0 15 -51
67 -66 67 -23 0 -44 -43 -44 -88 0 -24 -5 -53 -11 -64 -9 -17 -8 -24 5 -33 23
-18 20 -43 -15 -109 -30 -56 -31 -66 -30 -158 1 -74 -2 -96 -11 -92 -16 5 -52
61 -62 92 -6 19 -10 21 -23 11 -11 -10 -13 -24 -8 -58 20 -136 84 -235 217
-332 37 -27 70 -49 73 -49 3 0 42 -18 86 -40 45 -22 92 -40 105 -40 13 0 24
-3 24 -8 0 -4 21 -13 48 -19 26 -7 72 -20 102 -29 64 -18 115 -27 300 -55 104
-16 208 -22 450 -26 283 -5 334 -3 505 17 105 12 192 26 193 31 2 5 27 9 55 9
29 1 77 7 107 15 122 30 175 46 184 56 6 5 18 9 28 9 20 0 61 17 178 73 100
48 152 97 197 188 32 64 39 114 33 221 -1 20 4 52 11 72 11 29 10 47 -1 103
-19 93 -16 122 14 179 14 27 26 54 26 60 0 6 11 21 25 34 14 13 25 30 25 37 0
7 4 21 10 31 16 27 60 151 81 226 12 45 19 102 19 158 0 74 -4 96 -26 141 -14
28 -27 74 -29 101 -4 48 -26 86 -50 86 -7 0 -16 7 -19 16 -4 10 -13 13 -27 9
-16 -5 -30 3 -63 37 -24 23 -62 59 -86 78 l-42 34 26 23 c33 28 32 36 -1 79
-36 44 -58 44 -73 -2 -9 -28 -16 -35 -31 -31 -23 6 -34 -9 -34 -48 0 -29 -1
-30 -50 -30 -47 0 -50 2 -53 29 -2 15 4 45 12 67 9 22 16 48 16 58 0 10 -37
56 -83 102 -115 117 -183 199 -191 232 -5 23 -1 32 24 53 31 27 41 64 15 64
-8 0 -19 17 -26 40 -7 22 -16 41 -21 41 -4 1 -12 2 -16 3 -5 0 -17 9 -26 19
-25 25 -50 17 -56 -18 l-5 -29 -38 38 c-20 22 -37 45 -37 53 0 7 -4 13 -9 13
-4 0 -20 27 -35 59 l-26 59 -38 -9 c-83 -21 -88 -21 -101 -5 -7 8 -11 27 -9
43 3 25 7 28 46 31 33 3 42 7 42 22 0 10 -4 21 -9 24 -5 3 -53 95 -106 203
-54 109 -102 205 -106 213 -5 8 -20 35 -34 60 -13 25 -40 62 -60 84 -30 33
-35 35 -35 17 0 -11 6 -38 14 -58 21 -58 33 -113 61 -288 27 -168 79 -392 100
-435 6 -14 20 -54 30 -90 37 -136 161 -334 313 -501 23 -25 42 -48 42 -51 0
-8 218 -222 230 -226 5 -2 10 -10 10 -18 0 -8 4 -14 9 -14 10 0 151 -139 151
-149 0 -3 8 -11 18 -18 20 -12 82 -100 121 -173 22 -41 25 -57 25 -168 0 -77
-4 -126 -11 -130 -6 -4 -14 -23 -18 -42 -4 -19 -10 -37 -14 -40 -3 -3 -15 -23
-26 -45 -29 -59 -78 -140 -87 -143 -4 -2 -8 -10 -8 -17 0 -7 -4 -15 -8 -17
-12 -5 -182 -236 -182 -248 0 -6 -4 -10 -8 -10 -5 0 -17 -18 -28 -40 -10 -22
-22 -40 -25 -40 -8 0 -28 -92 -54 -235 -18 -99 -39 -171 -59 -197 -16 -21 -90
-48 -136 -48 -19 0 -53 -5 -75 -10 -116 -29 -498 -46 -680 -30 -71 6 -159 14
-195 17 -51 4 -69 10 -87 29 -26 29 -50 102 -64 199 -5 39 -12 78 -15 89 -8
26 16 133 32 147 8 6 14 15 14 20 0 12 88 92 111 101 11 4 19 11 19 17 0 5 8
11 18 15 21 7 70 43 124 91 22 19 44 35 48 35 19 0 210 206 210 227 0 7 4 13
10 13 5 0 21 25 35 56 78 171 56 306 -102 634 -70 145 -176 366 -198 415 -8
17 -26 75 -41 130 -53 196 -31 472 53 663 8 18 11 37 8 43 -4 5 30 84 74 173
45 90 81 167 81 170 0 3 9 25 19 49 42 91 62 164 59 208 l-3 44 -32 -65z
m-443 -1202 c0 -10 -6 -18 -12 -18 -7 0 -33 -16 -57 -35 -24 -19 -49 -35 -55
-35 -39 1 -54 61 -18 74 9 4 37 17 61 30 36 20 47 22 62 13 11 -7 19 -20 19
-29z m31 -928 c-2 -36 -4 -74 -5 -85 -1 -26 -39 -32 -72 -11 -54 36 -8 171 55
164 25 -3 26 -5 22 -68z m1886 -92 c13 -12 23 -30 23 -40 0 -20 -45 -46 -58
-33 -4 4 -2 10 5 12 8 3 7 11 -3 31 -27 53 -9 70 33 30z m-2281 -310 c4 -22
15 -49 26 -60 10 -10 18 -21 18 -24 0 -3 7 -12 15 -20 8 -9 15 -21 15 -29 0
-7 -7 -15 -15 -19 -10 -4 -15 1 -15 15 0 14 -6 19 -17 18 -27 -4 -102 12 -109
22 -7 12 27 109 38 109 4 0 8 7 8 15 0 8 7 15 15 15 10 0 17 -14 21 -42z
m2124 -266 c0 -48 -26 -102 -48 -102 -35 0 -41 13 -35 78 l6 62 38 0 c39 0 39
0 39 -38z"/>
<path d="M6260 8740 c13 -23 20 -26 20 -6 0 8 -7 16 -15 20 -13 4 -14 2 -5
-14z"/>
<path d="M6314 8684 c3 -9 6 -19 6 -24 0 -4 9 -10 20 -13 11 -3 20 -1 20 4 0
5 -4 9 -9 9 -5 0 -13 9 -16 20 -3 11 -11 20 -17 20 -5 0 -7 -7 -4 -16z"/>
<path d="M1333 7825 c-57 -26 -108 -69 -98 -85 3 -6 21 -10 38 -10 74 0 137
36 137 78 0 37 -22 41 -77 17z"/>
<path d="M931 7447 c-96 -68 -87 -64 -156 -74 -53 -7 -62 -12 -83 -43 -16 -25
-22 -46 -21 -80 1 -25 -4 -63 -10 -85 -15 -47 -11 -117 6 -122 17 -6 83 100
83 131 0 15 13 38 30 56 17 17 30 34 30 38 0 5 16 14 35 22 19 8 35 20 35 27
0 7 4 13 8 13 4 0 15 12 25 28 9 15 37 49 62 76 43 47 54 66 38 66 -5 0 -41
-24 -82 -53z"/>
<path d="M1263 7291 c-10 -10 -35 -26 -56 -36 -42 -20 -43 -35 -4 -49 31 -11
103 9 111 31 8 21 -4 61 -20 67 -8 3 -22 -3 -31 -13z"/>
<path d="M2336 7139 c-13 -29 -22 -38 -34 -35 -10 3 -37 7 -61 10 -40 5 -43 4
-29 -10 20 -20 116 -28 133 -10 16 16 29 73 17 80 -5 3 -16 -13 -26 -35z"/>
<path d="M5402 7150 c-30 -15 -45 -50 -35 -77 3 -8 23 -13 54 -13 l49 0 0 40
c0 36 3 40 25 40 43 0 27 18 -19 22 -26 2 -57 -3 -74 -12z"/>
<path d="M5680 7100 c0 -22 5 -40 10 -40 6 0 10 18 10 40 0 22 -4 40 -10 40
-5 0 -10 -18 -10 -40z"/>
<path d="M7843 6865 c0 -22 2 -30 4 -17 2 12 2 30 0 40 -3 9 -5 -1 -4 -23z"/>
<path d="M898 6681 c-10 -10 -18 -21 -18 -25 0 -12 -43 -45 -58 -46 -17 0 -75
30 -84 44 -4 6 -10 7 -14 3 -4 -4 0 -15 8 -25 75 -83 98 -102 122 -102 14 0
26 5 26 10 0 6 6 10 14 10 17 0 54 61 58 96 4 37 -30 59 -54 35z"/>
<path d="M2837 6662 c-14 -6 -9 -12 28 -30 25 -12 58 -22 73 -22 26 1 26 1
-10 20 -20 11 -40 24 -43 30 -7 11 -22 12 -48 2z"/>
<path d="M7810 6540 c0 -29 4 -40 15 -40 11 0 15 11 15 40 0 29 -4 40 -15 40
-11 0 -15 -11 -15 -40z"/>
<path d="M8281 6528 c-10 -27 -4 -48 18 -65 33 -24 64 36 35 68 -23 25 -43 24
-53 -3z"/>
<path d="M7350 6484 c-19 -7 -43 -13 -52 -13 -11 -1 -18 -9 -18 -20 0 -20 -18
-31 -51 -31 -13 0 -21 -9 -25 -29 -6 -27 -8 -29 -45 -24 -32 5 -39 3 -39 -11
0 -9 -8 -16 -18 -16 -16 0 -62 -49 -62 -65 0 -3 -14 -19 -31 -34 -21 -20 -46
-31 -80 -35 -27 -4 -49 -11 -49 -16 0 -6 -9 -10 -20 -10 -14 0 -22 -11 -31
-40 -7 -22 -16 -40 -21 -40 -4 0 -8 -6 -8 -12 -1 -21 -88 -68 -126 -68 -19 0
-34 -4 -34 -10 0 -5 18 -10 40 -10 38 0 40 -2 40 -30 0 -28 -2 -30 -40 -30
-22 0 -40 5 -40 11 0 6 -17 9 -42 7 -36 -3 -43 -6 -40 -23 1 -15 -9 -25 -38
-39 -22 -11 -40 -23 -40 -28 0 -4 -13 -8 -30 -8 -19 0 -34 -7 -42 -20 -9 -14
-24 -20 -50 -20 -21 0 -38 5 -38 10 0 6 -18 10 -40 10 -38 0 -40 2 -40 30 0
28 -2 30 -40 30 -33 0 -40 3 -40 20 0 17 -7 20 -40 20 -35 0 -40 -3 -40 -23 0
-13 -6 -29 -12 -36 -10 -11 -10 -14 0 -18 9 -3 12 -38 12 -124 l0 -119 -40 0
c-34 0 -42 -4 -50 -26 -6 -14 -10 -49 -10 -77 0 -67 -12 -87 -40 -69 -11 6
-27 12 -35 12 -8 0 -15 6 -15 14 0 7 -7 19 -15 26 -24 20 -94 127 -101 154 -3
14 -10 26 -14 26 -8 0 -80 181 -80 201 0 11 -22 67 -41 101 -5 10 -9 29 -9 43
0 14 -6 38 -14 53 -8 15 -19 88 -26 162 -11 134 -22 192 -39 219 -11 17 -182
16 -192 -1 -4 -6 -25 -8 -50 -6 -64 8 -109 -23 -109 -74 0 -27 -4 -38 -15 -38
-11 0 -15 -11 -15 -40 0 -29 4 -40 15 -40 8 0 15 -6 15 -14 0 -11 22 -16 91
-22 90 -7 92 -7 111 -40 11 -19 24 -34 29 -34 5 0 11 -11 15 -25 3 -14 10 -25
15 -25 5 0 9 -4 9 -10 0 -5 11 -34 25 -64 14 -30 25 -59 25 -65 0 -17 63 -176
72 -179 4 -2 8 -19 8 -38 0 -22 6 -37 15 -40 8 -4 15 -15 15 -25 0 -26 30 -99
41 -99 5 0 9 -8 9 -17 0 -10 22 -62 49 -118 27 -55 56 -117 65 -138 8 -20 22
-40 31 -43 8 -3 15 -13 15 -20 0 -8 6 -17 14 -20 8 -3 17 -23 21 -45 6 -34 10
-39 35 -39 24 0 29 -5 35 -37 3 -20 17 -45 30 -55 13 -10 25 -28 27 -41 2 -14
11 -23 26 -25 12 -2 22 -10 22 -18 0 -8 7 -17 15 -20 8 -4 15 -15 15 -25 0
-10 7 -19 15 -19 11 0 15 -11 15 -40 0 -36 3 -40 25 -40 14 0 25 -4 25 -10 0
-5 18 -10 39 -10 36 0 40 -3 46 -30 4 -16 11 -30 16 -30 5 0 9 -8 9 -17 0 -10
11 -38 25 -62 14 -23 25 -52 25 -62 0 -10 5 -19 10 -19 21 0 70 -44 70 -62 0
-10 7 -18 15 -18 8 0 15 -7 15 -15 0 -25 23 -65 37 -65 7 0 13 -4 13 -9 0 -12
59 -71 71 -71 5 0 9 -7 9 -15 0 -20 49 -64 72 -65 14 0 58 -55 58 -73 0 -3
-32 -5 -72 -4 -56 2 -77 6 -94 22 -45 40 -54 45 -88 45 -19 0 -36 -6 -39 -12
-7 -21 -77 17 -77 42 0 16 -7 20 -35 20 -22 0 -43 8 -55 20 -11 11 -31 20 -45
20 -14 0 -25 4 -25 9 0 5 -14 23 -31 40 -22 23 -40 31 -65 31 -19 0 -34 3 -34
8 0 4 -12 15 -26 25 -19 15 -28 16 -39 7 -18 -15 -8 -40 16 -40 15 0 19 -7 19
-40 0 -31 4 -40 18 -40 25 -1 62 -35 62 -59 0 -14 6 -21 20 -21 16 0 20 -7 20
-35 0 -22 8 -44 20 -57 12 -13 20 -36 20 -56 0 -30 5 -35 40 -50 32 -14 40
-22 40 -43 0 -20 9 -30 40 -45 22 -10 40 -25 40 -31 0 -8 15 -13 40 -13 32 0
40 -4 40 -19 0 -14 10 -20 40 -25 22 -3 40 -11 40 -16 0 -6 18 -10 40 -10 27
0 40 -4 40 -14 0 -8 28 -19 80 -30 54 -12 80 -22 80 -32 0 -11 18 -14 80 -14
44 0 80 -4 80 -9 0 -5 36 -12 80 -16 44 -4 80 -11 80 -15 0 -11 314 0 318 11
5 13 82 11 82 -1 0 -5 18 -10 40 -10 29 0 40 4 40 15 0 13 20 15 120 15 l120
0 0 24 c0 24 3 25 91 32 62 4 95 12 106 23 15 15 14 17 -13 23 -23 5 -19 6 18
5 37 -1 53 4 73 23 20 19 34 23 74 21 l50 -2 -6 56 -6 55 32 0 c30 0 31 2 31
40 0 36 3 40 24 40 13 0 38 14 56 30 24 23 42 30 71 30 21 0 39 5 39 10 0 6
-18 10 -40 10 -29 0 -40 4 -40 15 0 11 11 15 40 15 36 0 40 3 40 25 0 24 3 25
55 25 l55 0 0 39 c0 23 5 41 12 43 9 3 4 17 -15 46 -15 23 -27 53 -27 67 0 14
-4 25 -10 25 -5 0 -10 5 -10 10 0 6 7 10 15 10 8 0 25 18 37 40 13 22 29 40
36 40 6 0 12 7 12 15 0 11 12 15 48 15 39 0 53 5 72 25 20 21 33 25 82 25 l58
0 0 -36 c0 -32 31 -93 52 -102 13 -6 9 -60 -4 -64 -7 -3 -13 -37 -16 -89 -3
-69 -1 -88 12 -101 9 -9 16 -26 16 -37 0 -11 4 -23 10 -26 5 -3 14 -24 20 -45
6 -22 19 -48 29 -57 10 -10 32 -43 50 -73 17 -30 42 -68 55 -84 14 -15 31 -41
38 -57 7 -16 19 -29 25 -29 7 0 13 -11 13 -23 0 -13 9 -32 19 -41 10 -10 22
-33 26 -52 3 -19 13 -38 21 -41 7 -3 14 -16 14 -28 0 -13 9 -44 19 -68 11 -25
23 -67 27 -94 4 -26 13 -65 20 -87 8 -21 14 -65 14 -97 0 -33 6 -69 13 -80 10
-17 10 -23 0 -26 -8 -3 -13 -25 -13 -60 0 -46 -5 -62 -32 -99 -17 -24 -35 -44
-40 -44 -4 0 -8 -9 -8 -20 0 -11 -6 -20 -14 -20 -9 0 -17 -15 -21 -40 -4 -22
-10 -40 -13 -40 -8 0 -20 -27 -50 -111 -47 -130 -34 -326 27 -389 16 -17 36
-51 44 -76 15 -47 15 -49 -18 -279 -3 -22 -11 -53 -16 -70 -6 -16 -13 -76 -15
-132 l-4 -102 40 -12 c38 -11 40 -14 40 -51 0 -25 4 -38 13 -37 30 4 38 -2 32
-21 -9 -28 6 -25 29 5 22 30 60 33 96 8 32 -23 205 -22 258 0 21 9 53 18 73
21 19 4 53 15 74 26 22 11 43 20 48 20 14 0 137 83 137 93 0 11 59 67 71 67 5
0 9 7 9 15 0 8 20 35 45 61 25 25 45 51 45 57 0 5 15 33 32 60 18 28 34 62 36
76 3 26 20 43 33 35 11 -6 18 22 12 45 -4 17 -2 20 11 15 10 -4 18 1 23 12 3
11 11 22 16 26 6 3 12 19 14 35 2 15 6 49 9 75 3 27 10 48 15 48 5 0 9 18 9
40 0 22 -4 40 -10 40 -5 0 -10 -14 -10 -31 0 -30 -2 -31 -30 -26 -19 4 -34 1
-44 -8 -8 -8 -31 -15 -50 -15 -35 0 -36 1 -36 40 0 33 -3 40 -20 40 -17 0 -20
7 -20 40 l0 40 -60 0 -60 0 0 39 0 39 -84 7 c-116 10 -221 -2 -276 -31 -30
-16 -62 -24 -95 -24 -33 0 -60 -7 -80 -20 -16 -11 -46 -20 -67 -20 -20 0 -38
-4 -40 -9 -4 -12 -78 20 -78 34 0 6 -9 16 -20 23 -11 7 -20 19 -20 27 0 8 9
15 20 15 12 0 20 7 20 18 0 23 60 91 85 95 49 9 75 20 75 33 0 8 7 14 15 14 7
0 18 6 22 13 18 29 105 67 154 67 41 0 49 3 49 19 0 24 63 31 213 23 105 -5
107 -5 107 17 0 14 -6 21 -20 21 -17 0 -20 7 -20 40 0 33 -3 40 -20 40 -11 0
-20 6 -20 13 -1 16 -82 67 -107 67 -10 0 -23 4 -29 8 -5 5 -30 17 -56 26 -27
10 -48 24 -48 32 0 10 -12 14 -40 14 -38 0 -40 2 -40 30 0 17 -5 30 -10 30 -6
0 -16 11 -22 25 -6 13 -19 27 -30 30 -10 4 -18 13 -18 22 0 9 -11 31 -25 49
-14 18 -25 37 -25 43 0 6 -7 11 -15 11 -11 0 -15 11 -15 40 0 22 5 40 10 40 6
0 10 18 10 40 0 29 -4 40 -15 40 -13 0 -14 17 -8 120 5 108 4 120 -11 120 -9
0 -19 7 -22 15 -3 8 -14 17 -25 20 -16 5 -19 16 -19 66 0 52 -2 59 -20 59 -17
0 -20 7 -20 40 0 37 -2 40 -27 40 -22 0 -34 10 -53 40 -13 22 -28 40 -32 40
-4 0 -8 7 -8 15 0 8 -13 28 -30 43 -23 22 -30 38 -30 66 0 20 -4 36 -10 36 -5
0 -10 -10 -10 -22 l0 -23 -20 25 c-16 20 -20 41 -20 103 0 70 2 77 20 77 17 0
20 7 20 40 0 33 -3 40 -20 40 -17 0 -20 7 -20 40 0 33 3 40 20 40 17 0 20 7
20 40 0 29 -4 40 -15 40 -11 0 -15 11 -15 40 l0 40 43 0 42 0 -1 63 c-1 34 -3
70 -3 80 -1 10 -9 17 -20 17 -11 0 -23 5 -26 10 -3 6 -13 10 -21 10 -8 0 -28
14 -44 30 -16 17 -35 30 -42 30 -7 0 -42 11 -78 23 -36 13 -82 27 -102 31 -21
4 -38 11 -38 16 0 6 -24 10 -54 10 -47 0 -54 3 -60 22 -3 13 -1 27 4 32 16 16
12 26 -11 26 -16 0 -20 -4 -14 -17 5 -14 3 -15 -5 -7 -9 9 -9 17 -1 32 6 11 8
28 5 36 -3 9 -1 16 5 16 6 0 11 5 11 10 0 6 -33 10 -80 10 l-80 0 0 40 c0 22
5 40 10 40 6 0 10 18 10 40 0 22 -4 40 -10 40 -5 0 -10 18 -10 40 0 33 3 40
20 40 17 0 20 7 20 40 0 33 3 40 20 40 17 0 20 7 20 40 0 33 3 40 20 40 17 0
20 7 20 40 0 38 -2 40 -30 40 -28 0 -30 2 -30 40 0 36 2 40 26 40 44 0 59 26
56 93 -1 32 -6 67 -12 76 -5 10 -11 49 -14 87 -5 62 -5 65 5 27 7 -30 15 -43
27 -43 16 0 32 -21 48 -62 5 -14 18 -18 64 -18 50 0 60 -3 65 -20 3 -11 12
-20 18 -20 7 0 24 -11 40 -24 20 -17 27 -32 27 -60 0 -25 4 -36 15 -36 11 0
15 -12 17 -42 1 -24 4 0 8 52 4 52 3 99 -2 104 -4 6 -8 18 -8 28 0 10 -4 18
-10 18 -5 0 -10 16 -10 35 0 43 -39 125 -59 126 -9 0 -31 18 -49 41 -18 22
-47 48 -65 57 -17 9 -36 26 -42 39 -8 17 -18 22 -47 22 -21 0 -38 5 -38 10 0
6 -11 10 -25 10 -14 0 -25 -4 -25 -10 0 -5 4 -10 9 -10 5 0 9 -36 9 -80 1 -44
-3 -80 -9 -80 -5 0 -9 18 -9 40 0 30 -4 40 -16 40 -15 0 -16 -9 -10 -61 3 -34
6 -70 6 -80 0 -12 7 -19 19 -19 11 0 23 -4 26 -10 3 -5 1 -10 -5 -10 -8 0 -10
-9 -6 -26 5 -20 3 -27 -14 -31 -16 -4 -20 -13 -20 -44 0 -38 -1 -38 -18 -21
-11 9 -17 20 -15 25 2 4 -1 7 -6 7 -6 0 -11 7 -11 15 0 8 -9 15 -20 15 -16 0
-20 7 -20 30 0 17 -4 30 -10 30 -5 0 -10 23 -10 50 0 47 -1 50 -26 50 -17 0
-28 6 -31 20 -3 11 -11 20 -17 20 -6 0 -20 16 -30 35 -11 19 -23 35 -28 35 -4
0 -8 14 -8 30 l0 30 -80 0 c-69 0 -80 -2 -80 -17 -1 -10 -18 -30 -39 -44 -42
-29 -53 -60 -64 -169 -2 -19 -10 -48 -19 -65 -8 -16 -16 -57 -17 -90 -2 -33
-5 -63 -7 -67 -3 -5 -7 -72 -9 -150 -2 -111 0 -145 11 -156 8 -7 14 -26 14
-40 0 -15 11 -39 25 -54 14 -15 25 -35 25 -45 0 -31 38 -46 111 -44 72 2 93
-10 87 -51 -5 -37 -68 -81 -68 -48 0 6 -11 15 -24 22 -14 6 -27 20 -29 32 -2
11 -5 2 -6 -21 l-1 -43 -80 0 -80 0 0 40 0 40 -74 0 -73 0 -6 60 c-4 33 -4 87
0 120 6 58 7 60 34 60 27 0 29 3 29 40 0 38 -2 40 -30 40 -23 0 -30 4 -30 20
0 17 -7 20 -40 20 -33 0 -40 3 -40 20 0 11 -5 20 -12 20 -6 0 -19 7 -29 16
-14 12 -24 14 -46 7 -25 -9 -27 -13 -24 -52 3 -44 -21 -97 -39 -86 -6 4 -10
-5 -10 -19 0 -24 -4 -26 -40 -26 -33 0 -40 -3 -40 -20 0 -11 -7 -20 -15 -20
-8 0 -19 -9 -25 -20 -6 -11 -17 -20 -25 -20 -11 0 -15 -12 -15 -40 l0 -40 -50
0 c-53 0 -55 2 -50 58 1 21 -2 22 -68 22 -39 0 -72 -3 -74 -8 -1 -4 -17 -17
-35 -28 -29 -18 -40 -19 -118 -10 l-85 9 0 59 c0 32 4 58 10 58 6 0 19 8 29
18 11 9 26 22 33 27 18 14 102 35 137 35 16 0 42 6 58 14 15 8 44 21 63 31 92
43 122 72 170 168 14 26 33 57 43 67 9 11 17 23 17 29 0 5 5 11 10 13 6 2 16
35 22 73 12 79 43 169 66 192 10 9 18 40 20 74 4 55 3 59 -17 59 -13 0 -21 6
-21 18 -1 9 -17 27 -36 40 -29 18 -49 22 -107 21 -40 -1 -88 -7 -107 -15z
m1560 -380 c0 -2 -7 -4 -15 -4 -8 0 -15 4 -15 10 0 5 7 7 15 4 8 -4 15 -8 15
-10z m-540 -1369 c0 -17 -31 -75 -39 -75 -6 0 -11 -7 -11 -15 0 -18 -47 -65
-65 -65 -8 0 -15 -7 -15 -15 0 -16 -40 -59 -64 -68 -9 -4 -16 -13 -16 -22 0
-8 -7 -15 -15 -15 -8 0 -24 -9 -35 -20 -12 -12 -31 -25 -43 -30 -23 -10 -58
-31 -67 -40 -12 -12 -51 -30 -65 -30 -8 0 -15 -6 -15 -14 0 -7 -14 -16 -30
-20 -17 -3 -47 -17 -68 -31 -20 -14 -61 -33 -89 -41 -29 -8 -53 -19 -53 -23 0
-4 -72 -25 -160 -47 -102 -24 -160 -43 -160 -51 0 -19 -107 -17 -126 2 -9 8
-20 15 -25 15 -5 0 -9 -7 -9 -15 0 -12 -20 -15 -120 -15 l-120 0 0 40 0 40
133 0 c100 1 137 4 151 15 11 9 41 15 68 15 l48 0 0 39 c0 36 3 40 40 55 22 9
40 20 40 26 0 5 7 10 16 10 9 0 22 7 28 16 7 8 25 17 41 18 16 2 37 13 46 25
13 16 28 21 63 21 39 0 46 3 46 20 0 17 7 20 40 20 22 0 40 3 40 8 0 8 49 32
67 32 7 0 13 7 13 15 0 8 6 15 14 15 7 0 19 6 25 14 16 19 154 87 180 89 12 1
21 7 21 14 0 9 15 13 44 13 26 0 48 6 56 14 6 8 34 22 61 31 27 9 49 21 49 26
0 5 18 9 40 9 22 0 40 -2 40 -5z m1533 -1782 c-13 -2 -33 -2 -45 0 -13 2 -3 4
22 4 25 0 35 -2 23 -4z m214 -547 c-4 -11 1 -13 19 -10 l24 4 0 -110 c0 -105
-1 -110 -21 -110 -20 0 -52 -23 -44 -32 2 -2 -11 -3 -30 -3 -20 1 -32 -2 -28
-8 4 -6 -3 -8 -15 -5 -18 5 -22 2 -22 -17 0 -21 -3 -23 -40 -18 l-40 6 0 -41
c0 -40 -1 -41 -37 -44 -31 -2 -39 -7 -41 -25 -4 -26 -6 -27 -32 -13 -25 13
-50 3 -50 -21 0 -17 -8 -19 -80 -19 -61 0 -80 -3 -80 -14 0 -9 -17 -15 -50
-18 -33 -3 -55 -11 -64 -23 -10 -14 -31 -18 -109 -21 l-97 -3 0 40 c0 28 4 39
15 39 8 0 29 8 48 19 18 10 48 22 65 26 18 3 32 12 32 18 0 12 15 22 82 52 20
9 39 23 42 31 3 9 20 14 46 14 48 0 70 18 70 54 0 22 4 26 30 26 17 0 30 5 30
10 0 6 5 10 10 10 6 0 10 -28 10 -64 0 -48 4 -67 17 -77 15 -12 16 -12 10 4
-4 11 -1 17 9 17 8 0 12 5 9 10 -4 6 17 10 54 10 l61 0 0 40 c0 39 1 40 35 40
31 0 34 3 31 23 -4 28 14 57 36 57 14 0 18 8 18 40 0 33 -3 40 -20 40 -11 0
-20 7 -20 15 0 11 12 15 45 15 35 0 43 -3 39 -15 -8 -20 6 -19 23 3 8 9 11 11
8 4 -6 -12 -3 -12 15 -2 28 15 11 29 -28 23 -21 -4 -24 -2 -12 6 10 7 11 11 3
11 -7 0 -13 5 -13 10 0 6 9 10 21 10 14 0 19 -5 16 -14z"/>
<path d="M505 6440 c-7 -22 14 -100 27 -100 4 0 8 -6 8 -14 0 -7 9 -25 21 -40
16 -21 29 -26 64 -26 32 0 44 4 47 18 7 24 -1 42 -18 42 -8 0 -14 3 -14 8 0 8
-116 132 -124 132 -2 0 -7 -9 -11 -20z"/>
<path d="M7920 6384 c0 -37 3 -44 20 -44 17 0 20 7 20 39 0 30 -4 40 -20 44
-18 5 -20 0 -20 -39z"/>
<path d="M7939 6255 c-3 -2 -3 -20 -1 -39 3 -29 8 -35 33 -38 22 -3 29 -1 29
12 0 17 -53 74 -61 65z"/>
<path d="M2528 6203 c-24 -6 -23 -23 2 -23 11 0 20 7 20 15 0 8 -1 14 -2 14
-2 -1 -11 -3 -20 -6z"/>
<path d="M2590 6185 c-7 -8 -15 -13 -17 -11 -6 6 -63 -14 -63 -22 0 -4 18 -17
40 -29 l40 -21 35 34 c37 36 44 54 21 54 -8 0 -21 2 -29 5 -7 3 -20 -1 -27
-10z"/>
<path d="M3040 5870 c0 -5 -7 -10 -15 -10 -8 0 -15 -4 -15 -10 0 -13 32 -28
48 -23 18 7 15 53 -3 53 -8 0 -15 -4 -15 -10z"/>
<path d="M3125 5849 c-11 -16 -1 -19 13 -3 7 8 8 14 3 14 -5 0 -13 -5 -16 -11z"/>
<path d="M8770 5740 c0 -23 -5 -40 -11 -40 -8 0 -10 -17 -5 -57 3 -32 11 -120
16 -196 9 -120 9 -140 -5 -153 -16 -17 -20 -34 -7 -34 16 0 42 36 42 58 0 12
7 22 17 24 10 2 18 10 18 18 2 36 18 116 27 127 5 6 5 14 0 17 -5 3 -8 30 -8
61 1 35 -3 55 -10 55 -8 0 -15 31 -19 80 -7 76 -8 80 -31 80 -21 0 -24 -4 -24
-40z"/>
<path d="M2370 5685 c0 -8 7 -15 15 -15 8 0 15 7 15 15 0 8 -7 15 -15 15 -8 0
-15 -7 -15 -15z"/>
<path d="M8650 5660 c0 -38 2 -40 30 -40 28 0 30 2 30 40 0 38 -2 40 -30 40
-28 0 -30 -2 -30 -40z"/>
<path d="M2320 5609 c0 -5 5 -7 10 -4 6 3 10 8 10 11 0 2 -4 4 -10 4 -5 0 -10
-5 -10 -11z"/>
<path d="M8880 5580 c0 -42 9 -50 29 -26 9 11 9 15 -1 19 -8 4 -9 6 -1 6 16 1
4 41 -13 41 -10 0 -14 -13 -14 -40z"/>
<path d="M8900 5521 c0 -11 -4 -23 -10 -26 -16 -10 -11 -35 7 -35 9 0 13 3 10
7 -4 3 -2 12 4 20 6 7 8 13 5 13 -4 0 -2 9 4 20 9 16 8 20 -5 20 -8 0 -15 -9
-15 -19z"/>
<path d="M5128 5479 c-10 -15 -14 -38 -11 -61 5 -37 7 -38 44 -38 21 0 39 -3
39 -8 0 -4 8 -12 18 -18 15 -10 18 -8 19 7 1 11 -4 19 -12 19 -15 0 -25 22
-25 56 0 13 -5 24 -11 24 -6 0 -19 10 -28 22 l-18 22 -15 -25z"/>
<path d="M5260 5291 c0 -6 5 -13 10 -16 6 -3 10 -21 10 -39 0 -19 7 -39 15
-46 8 -7 15 -21 15 -31 0 -14 7 -19 25 -19 28 0 32 12 10 30 -8 7 -15 21 -15
31 0 11 -4 19 -8 19 -5 0 -17 18 -28 40 -18 37 -34 52 -34 31z"/>
<path d="M5040 4940 c0 -22 4 -40 9 -40 5 0 20 -17 32 -37 13 -21 27 -39 31
-41 4 -2 8 -28 8 -58 0 -34 6 -64 16 -79 15 -23 15 -25 0 -25 -12 0 -16 -10
-16 -40 l0 -40 -40 0 c-22 0 -40 5 -40 10 0 6 -18 10 -39 10 -36 0 -40 3 -43
28 -2 19 -9 28 -25 30 -19 3 -23 10 -23 43 0 28 -4 39 -15 39 -8 0 -15 -7 -15
-15 0 -8 -4 -15 -9 -15 -5 0 -14 7 -21 15 -18 22 -50 19 -50 -5 0 -17 -7 -20
-40 -20 -39 0 -40 -1 -40 -35 0 -33 -2 -35 -36 -35 -19 0 -42 -6 -49 -12 -35
-32 -45 -38 -60 -38 -11 0 -15 -11 -15 -40 0 -29 -4 -40 -15 -40 -23 0 -21
-77 3 -83 9 -3 -2 -5 -25 -6 -42 -1 -43 -2 -43 -36 0 -34 -1 -35 -40 -35 l-40
0 0 -57 c0 -50 -3 -60 -27 -80 l-28 -22 28 -1 c25 0 27 -3 27 -38 0 -33 -5
-41 -40 -62 -22 -14 -40 -33 -40 -42 0 -10 -7 -18 -15 -18 -11 0 -15 -11 -15
-40 l0 -40 -65 0 -65 0 0 -45 0 -45 -40 0 c-39 0 -40 -1 -40 -35 l0 -35 -80 0
-80 0 0 -40 c0 -31 4 -40 18 -40 16 -1 16 -1 0 -14 -10 -7 -18 -25 -18 -40 0
-26 0 -26 -77 -26 -78 -1 -78 -1 -105 -37 -21 -27 -28 -48 -28 -80 0 -32 -4
-43 -15 -43 -8 0 -15 -9 -15 -20 0 -17 -7 -20 -40 -20 -22 0 -40 -4 -40 -10 0
-5 -18 -10 -40 -10 -42 0 -49 -9 -27 -32 8 -7 17 -25 20 -40 6 -23 4 -27 -24
-33 -17 -4 -33 -4 -36 -1 -4 3 1 6 10 6 13 0 17 9 17 41 l0 40 -42 -3 -43 -3
3 -37 c3 -29 0 -38 -12 -38 -12 0 -16 -10 -16 -40 0 -48 11 -50 64 -10 21 16
43 27 47 24 8 -5 66 22 79 37 6 6 66 31 77 31 4 0 19 9 32 19 13 11 30 19 37
19 8 0 14 5 14 10 0 6 8 10 19 10 10 0 24 7 31 15 16 19 68 45 92 45 10 0 18
4 18 10 0 5 18 15 40 21 22 7 40 15 40 19 0 8 87 37 133 45 15 3 27 1 27 -5 0
-5 9 -10 20 -10 18 0 20 -7 20 -80 0 -47 4 -80 10 -80 6 0 10 -18 10 -40 0
-22 5 -40 10 -40 6 0 10 -18 10 -40 0 -29 4 -40 15 -40 11 0 15 -11 15 -40 0
-36 3 -40 25 -40 21 0 25 -5 25 -30 0 -20 5 -30 15 -30 8 0 15 -4 15 -10 0 -5
11 -10 25 -10 22 0 25 -4 25 -40 l0 -39 225 1 225 1 0 39 c0 36 2 38 30 38 28
0 30 2 30 40 0 22 4 40 9 40 5 0 12 36 16 80 4 44 11 80 16 80 5 0 9 54 9 120
0 103 2 120 16 120 14 0 15 10 9 80 -6 70 -5 80 9 80 12 0 16 10 16 40 l0 40
55 0 55 0 0 40 c0 22 5 40 11 40 6 0 9 18 8 46 -3 41 0 48 35 80 20 18 44 34
52 34 11 0 14 17 14 80 0 73 2 80 20 80 11 0 20 5 20 10 0 6 18 10 40 10 22 0
40 5 40 10 0 6 7 10 15 10 8 0 19 9 25 20 8 14 21 20 45 20 34 0 35 1 35 40 0
22 5 40 10 40 6 0 10 18 10 40 0 22 5 40 10 40 6 0 10 -18 10 -40 0 -22 5 -40
10 -40 6 0 10 18 10 40 0 33 3 40 20 40 17 0 20 7 20 39 0 22 -3 41 -7 43 -12
5 -53 110 -53 135 0 12 -4 23 -8 25 -4 2 -18 43 -30 93 -12 49 -26 91 -32 93
-5 2 -10 15 -10 28 0 18 -5 24 -23 24 -12 0 -30 9 -40 20 -13 15 -29 20 -67
20 -32 0 -61 7 -82 20 -26 15 -51 20 -110 20 l-78 0 0 -40z"/>
<path d="M3360 4910 c0 -5 5 -10 11 -10 5 0 7 5 4 10 -3 6 -8 10 -11 10 -2 0
-4 -4 -4 -10z"/>
<path d="M5520 4910 c0 -5 5 -10 10 -10 6 0 10 5 10 10 0 6 -4 10 -10 10 -5 0
-10 -4 -10 -10z"/>
<path d="M9200 4905 c0 -11 11 -15 43 -14 27 1 33 3 17 6 -14 3 -29 9 -34 14
-15 14 -26 11 -26 -6z"/>
<path d="M5590 4835 c0 -8 6 -15 14 -15 16 0 31 -35 27 -62 -2 -13 5 -18 23
-18 29 0 36 27 11 36 -8 4 -15 12 -15 20 0 18 -31 54 -47 54 -7 0 -13 -7 -13
-15z"/>
<path d="M1120 4731 c0 -4 -18 -20 -39 -34 -28 -19 -41 -35 -43 -54 -2 -15 -9
-28 -16 -28 -21 0 -42 -36 -36 -61 4 -15 0 -29 -10 -39 -25 -25 -19 -35 19
-35 35 0 73 -19 107 -52 15 -15 18 -35 18 -109 0 -50 -5 -100 -11 -111 -8 -15
-8 -22 1 -28 21 -13 4 -35 -29 -38 -17 -1 -47 -11 -66 -22 -20 -11 -49 -20
-65 -20 -28 0 -30 -2 -30 -39 0 -42 -13 -54 -51 -44 -13 4 -20 2 -16 -4 3 -5
-6 -22 -21 -38 -15 -16 -26 -33 -25 -37 2 -4 -3 -5 -10 -2 -9 3 -13 -7 -14
-36 0 -22 3 -40 7 -40 5 0 10 -12 12 -27 2 -16 8 -28 13 -29 6 0 18 -4 28 -9
13 -6 15 -10 7 -15 -15 -9 -4 -30 16 -30 8 0 14 -10 14 -26 0 -19 4 -25 14
-21 11 4 13 -1 10 -20 -7 -40 4 -63 32 -63 13 0 23 -4 21 -9 -5 -20 38 -71 61
-71 15 0 22 -6 22 -18 0 -11 11 -24 25 -30 14 -6 25 -16 25 -22 0 -5 7 -10 15
-10 8 0 15 -6 15 -14 0 -10 19 -19 54 -26 30 -6 60 -18 66 -26 8 -9 32 -14 66
-14 39 0 54 -4 54 -14 0 -7 10 -16 23 -19 12 -3 47 -14 77 -26 30 -12 74 -21
97 -21 36 0 43 -3 43 -20 0 -11 3 -19 8 -19 21 4 65 -2 59 -7 -8 -8 18 -34 33
-34 14 0 59 -51 60 -67 0 -8 15 -13 40 -13 l40 0 0 -59 c0 -50 -3 -59 -20 -64
-11 -3 -18 -2 -15 2 2 5 -7 6 -20 3 -16 -3 -25 -11 -25 -23 0 -13 -7 -19 -23
-19 -13 0 -29 -6 -35 -12 -9 -9 -15 -9 -20 -2 -4 6 -93 11 -244 13 -234 2
-238 2 -238 -19 0 -11 3 -20 8 -20 4 0 13 -9 20 -21 10 -16 10 -20 0 -18 -7 1
-29 1 -49 0 l-37 -1 10 -40 c8 -29 16 -40 29 -40 11 0 19 -7 19 -15 0 -8 3
-15 8 -15 15 0 72 -58 72 -74 0 -15 21 -21 63 -17 11 2 17 -5 17 -18 0 -16 6
-21 25 -21 14 0 25 -4 25 -10 0 -5 7 -10 15 -10 10 0 15 -10 15 -30 0 -25 4
-30 25 -30 14 0 45 -9 67 -20 23 -11 48 -20 55 -20 7 0 13 -8 13 -18 0 -19 72
-48 78 -31 2 5 13 9 25 9 16 0 18 -3 9 -9 -11 -7 -10 -10 3 -15 28 -10 45 -7
45 9 0 8 7 15 15 15 8 0 14 -6 13 -12 -5 -22 45 -9 67 17 29 34 109 39 119 8
3 -10 28 -42 56 -72 39 -42 50 -50 52 -35 0 10 4 -1 7 -26 5 -36 12 -48 38
-65 18 -11 32 -28 33 -37 0 -12 8 -18 25 -18 14 0 24 -3 23 -7 -4 -22 16 -153
24 -153 5 0 4 -9 -2 -21 -9 -16 -9 -28 0 -50 12 -28 38 -37 90 -29 15 2 50 38
50 52 0 4 7 8 15 8 8 0 15 7 15 15 0 9 9 26 20 37 29 32 23 92 -12 131 -18 18
-28 40 -28 59 0 16 -7 37 -16 45 -13 14 -14 18 -1 30 12 12 18 13 35 2 29 -18
44 -55 28 -68 -7 -6 -15 -9 -17 -6 -3 2 -6 -7 -7 -20 -1 -20 3 -25 22 -25 18
0 25 -7 30 -30 3 -16 10 -30 15 -30 9 0 27 84 25 120 -1 31 -16 70 -25 64 -5
-3 -12 3 -16 13 -9 23 -28 43 -42 43 -6 0 -11 4 -11 9 0 5 -11 12 -25 15 -14
4 -25 13 -25 21 0 8 -7 15 -15 15 -9 0 -15 -9 -15 -24 0 -34 10 -56 25 -56 7
0 15 -6 18 -14 7 -17 -18 -40 -33 -31 -6 3 -10 -3 -10 -14 0 -12 -7 -21 -15
-21 -11 0 -15 11 -15 40 l0 40 -40 0 -40 0 0 40 0 40 40 0 40 0 0 40 c0 36 -2
40 -25 40 -14 0 -25 6 -25 13 -1 6 -19 26 -40 42 -24 18 -39 39 -40 52 0 12
-4 25 -10 28 -23 14 -7 25 40 25 38 0 50 -4 50 -15 0 -18 16 -20 26 -3 4 6 2
14 -4 16 -7 2 -12 21 -12 43 l0 39 -45 0 -45 0 0 50 0 50 39 0 c22 0 42 -6 45
-12 3 -7 5 8 4 34 -2 44 1 50 35 75 20 15 36 36 37 45 0 9 8 22 18 28 16 10
16 10 0 20 -10 6 -18 19 -18 28 0 9 -19 30 -41 47 -22 16 -35 31 -30 33 6 2
11 21 11 43 0 38 -1 39 -35 39 -34 0 -35 1 -35 40 0 29 -4 40 -15 40 -9 0 -15
-9 -15 -22 -1 -23 -1 -23 -16 -3 -13 18 -13 20 0 23 25 5 18 25 -21 57 -24 20
-38 26 -41 17 -5 -15 -21 -15 -55 1 -15 6 -27 20 -27 29 0 9 -9 19 -19 23 -11
3 -22 12 -25 20 -4 11 -21 15 -61 15 -39 0 -55 4 -55 13 0 13 -40 37 -60 37
-13 0 -50 32 -45 40 2 3 -10 15 -26 25 -16 11 -29 29 -29 39 0 11 -11 34 -26
53 -14 18 -20 33 -15 33 18 0 12 72 -9 118 -10 23 -15 42 -11 42 16 0 20 27 7
52 -7 13 -11 29 -9 35 2 6 -1 14 -6 18 -6 3 -11 17 -11 31 0 13 -4 24 -8 24
-5 0 -18 18 -31 40 -12 22 -26 40 -32 40 -5 0 -9 18 -9 40 0 29 -4 40 -15 40
-8 0 -15 4 -15 10 0 5 -15 27 -33 47 -19 21 -42 53 -53 71 -10 17 -24 32 -31
32 -7 0 -13 8 -13 18 0 18 -49 62 -70 62 -5 0 -10 4 -10 9 0 5 -18 28 -40 51
-22 23 -40 50 -40 59 0 10 -9 28 -20 41 -10 12 -25 35 -32 51 -12 28 -28 39
-28 20z m800 -1551 l0 -40 -40 0 -40 0 0 40 0 40 40 0 40 0 0 -40z m20 -124
c0 -3 -4 -8 -10 -11 -5 -3 -10 -1 -10 4 0 6 5 11 10 11 6 0 10 -2 10 -4z
m-517 -133 c-13 -2 -33 -2 -45 0 -13 2 -3 4 22 4 25 0 35 -2 23 -4z m657 -119
c0 -17 -22 -14 -28 4 -2 7 3 12 12 12 9 0 16 -7 16 -16z m-140 -228 c0 -3 -4
-8 -10 -11 -5 -3 -10 -1 -10 4 0 6 5 11 10 11 6 0 10 -2 10 -4z m261 -216 c21
0 39 -4 39 -10 0 -5 -20 -10 -45 -10 l-45 0 2 43 c1 36 2 38 5 10 4 -31 7 -33
44 -33z m279 -90 c0 -5 -4 -10 -10 -10 -5 0 -10 5 -10 10 0 6 5 10 10 10 6 0
10 -4 10 -10z m-160 -50 c0 -29 -4 -40 -15 -40 -11 0 -15 11 -15 40 0 29 4 40
15 40 11 0 15 -11 15 -40z m87 -92 c-3 -8 -6 -5 -6 6 -1 11 2 17 5 13 3 -3 4
-12 1 -19z m-27 -38 c0 -5 -9 -10 -20 -10 -11 0 -20 5 -20 10 0 6 9 10 20 10
11 0 20 -4 20 -10z"/>
<path d="M5760 4650 c0 -5 5 -10 10 -10 6 0 10 5 10 10 0 6 -4 10 -10 10 -5 0
-10 -4 -10 -10z"/>
<path d="M5820 4586 c0 -8 5 -18 10 -21 6 -3 10 -19 10 -36 0 -25 4 -29 28
-29 32 0 46 -9 55 -32 8 -21 20 -23 36 -5 8 11 5 21 -14 43 -14 16 -25 39 -25
52 0 19 -5 22 -40 22 -22 0 -40 5 -40 10 0 6 -4 10 -10 10 -5 0 -10 -6 -10
-14z"/>
<path d="M3170 4350 c-12 -8 -11 -10 8 -10 12 0 22 5 22 10 0 13 -11 13 -30 0z"/>
<path d="M3048 4093 c7 -3 16 -2 19 1 4 3 -2 6 -13 5 -11 0 -14 -3 -6 -6z"/>
<path d="M3100 4060 c0 -5 5 -10 10 -10 6 0 10 5 10 10 0 6 -4 10 -10 10 -5 0
-10 -4 -10 -10z"/>
<path d="M2955 3850 c3 -5 8 -10 11 -10 2 0 4 5 4 10 0 6 -5 10 -11 10 -5 0
-7 -4 -4 -10z"/>
<path d="M2980 3821 c0 -5 7 -12 16 -15 22 -9 24 -8 24 9 0 8 -9 15 -20 15
-11 0 -20 -4 -20 -9z"/>
<path d="M3124 3639 c3 -34 6 -70 6 -80 0 -14 7 -19 29 -19 28 0 30 3 34 43
l4 42 1 -42 2 -43 40 0 40 0 0 80 0 80 -81 0 -82 0 7 -61z"/>
<path d="M3315 3540 c7 -77 6 -80 -14 -80 -18 0 -21 -6 -21 -40 l0 -40 40 0
40 0 0 120 0 120 -26 0 -26 0 7 -80z"/>
<path d="M2880 3580 c0 -5 7 -10 15 -10 8 0 15 5 15 10 0 6 -7 10 -15 10 -8 0
-15 -4 -15 -10z"/>
<path d="M2786 3352 c-8 -14 20 -34 41 -30 28 5 22 33 -9 36 -14 2 -29 -1 -32
-6z"/>
<path d="M2713 3143 c4 -3 7 -11 7 -18 0 -15 27 -28 41 -19 16 10 9 34 -10 34
-11 0 -25 2 -33 3 -7 2 -10 2 -5 0z"/>
<path d="M2370 3136 c0 -2 7 -6 15 -10 8 -3 15 -1 15 4 0 6 -7 10 -15 10 -8 0
-15 -2 -15 -4z"/>
<path d="M2380 3070 c-13 -8 -12 -10 3 -10 9 0 17 5 17 10 0 12 -1 12 -20 0z"/>
<path d="M1220 3050 c0 -10 15 -14 35 -10 5 1 6 -2 2 -6 -11 -12 -37 -14 -37
-3 0 5 -4 9 -10 9 -18 0 -10 -19 10 -24 55 -16 65 -17 51 -7 -16 10 -1 16 64
24 23 3 20 4 -12 6 -24 0 -43 6 -43 11 0 6 -13 10 -30 10 -16 0 -30 -4 -30
-10z"/>
<path d="M2560 2963 c0 -9 3 -13 7 -10 10 11 42 -23 37 -38 -4 -8 3 -15 18
-17 14 -2 22 -9 20 -18 -2 -8 0 -12 4 -7 4 4 16 0 26 -9 16 -16 18 -15 27 7 6
16 5 25 -3 28 -6 2 -15 10 -19 18 -5 8 -19 13 -31 11 -28 -3 -57 18 -49 38 3
9 -2 14 -16 14 -13 0 -21 -6 -21 -17z"/>
<path d="M4560 2889 c0 -5 5 -7 10 -4 6 3 10 8 10 11 0 2 -4 4 -10 4 -5 0 -10
-5 -10 -11z"/>
<path d="M2418 2813 c12 -2 32 -2 45 0 12 2 2 4 -23 4 -25 0 -35 -2 -22 -4z"/>
<path d="M2527 2763 c-13 -12 -7 -23 13 -23 13 0 20 -7 20 -20 0 -11 4 -20 9
-20 5 0 12 -13 16 -30 7 -33 12 -35 38 -16 20 16 21 23 5 59 -10 20 -20 27
-40 27 -18 0 -28 5 -28 15 0 15 -21 21 -33 8z"/>
<path d="M2297 2683 c-12 -11 -8 -23 8 -23 8 0 15 -7 15 -15 0 -11 11 -15 40
-15 38 0 40 -2 40 -29 0 -21 6 -32 20 -36 25 -8 60 3 60 18 -1 18 -84 77 -107
77 -12 0 -23 7 -27 15 -5 15 -37 21 -49 8z"/>
<path d="M2563 2571 c3 -14 0 -17 -14 -14 -36 10 -69 -6 -69 -32 0 -16 -6 -25
-15 -25 -8 0 -15 -4 -15 -10 0 -5 7 -10 15 -10 8 0 15 5 15 10 0 6 7 10 15 10
11 0 15 -12 15 -49 0 -58 9 -68 34 -39 12 13 18 38 18 74 0 29 4 51 9 49 10
-7 22 32 14 45 -11 17 -28 11 -22 -9z"/>
<path d="M4200 1365 c0 -8 -9 -15 -20 -15 -18 0 -20 -7 -20 -67 0 -43 -4 -63
-9 -54 -15 23 -31 2 -31 -42 0 -31 -5 -47 -20 -57 -28 -20 -26 -50 3 -50 12 0
17 -4 11 -8 -16 -11 -27 -44 -11 -37 6 4 4 0 -6 -8 -10 -8 -14 -17 -8 -18 5
-2 12 -37 14 -77 5 -91 45 -178 97 -213 19 -13 41 -29 48 -36 39 -38 248 -54
424 -33 97 11 111 11 157 -6 28 -10 51 -21 51 -24 0 -4 18 -15 40 -26 22 -10
40 -22 40 -26 0 -5 9 -8 19 -8 11 0 22 -4 25 -9 3 -4 27 -14 53 -21 27 -7 52
-17 58 -21 5 -5 62 -9 127 -9 106 0 118 2 118 18 -1 16 -60 62 -82 62 -6 0
-26 13 -44 30 -19 16 -52 35 -74 41 -22 7 -40 17 -40 22 0 5 -7 4 -15 -3 -11
-9 -22 -4 -55 29 -25 24 -51 41 -65 41 -12 0 -25 6 -28 13 -3 8 -21 22 -41 31
-20 9 -36 21 -36 26 0 6 -7 10 -15 10 -8 0 -15 6 -15 14 0 8 -22 27 -49 41
-27 15 -51 36 -54 46 -3 10 -16 23 -30 28 -14 5 -28 15 -32 20 -3 6 -15 11
-26 11 -10 0 -19 7 -19 15 0 18 -47 65 -65 65 -8 0 -15 4 -15 9 0 10 -58 71
-66 71 -3 0 -19 13 -36 29 -18 17 -43 36 -57 43 -15 7 -28 16 -31 19 -55 67
-106 119 -116 119 -8 0 -14 7 -14 15 0 8 -9 15 -20 15 -11 0 -20 -7 -20 -15z
m-70 -351 c0 -8 -19 -13 -24 -6 -3 5 1 9 9 9 8 0 15 -2 15 -3z"/>
<path d="M4120 1279 c0 -5 5 -7 10 -4 6 3 10 8 10 11 0 2 -4 4 -10 4 -5 0 -10
-5 -10 -11z"/>
<path d="M5440 486 c0 -9 5 -16 10 -16 6 0 10 4 10 9 0 6 -4 13 -10 16 -5 3
-10 -1 -10 -9z"/>
<path d="M5665 384 c22 -17 46 -15 53 4 2 8 -8 12 -35 12 -36 -1 -37 -1 -18
-16z"/>
<path d="M7906 391 c-9 -14 24 -22 45 -11 10 6 19 13 19 15 0 9 -59 5 -64 -4z"/>
<path d="M7806 354 c-8 -8 -22 -14 -30 -14 -9 0 -16 -7 -16 -15 0 -12 6 -12
48 0 26 8 51 15 55 15 15 0 -2 18 -23 23 -11 3 -27 -1 -34 -9z"/>
<path d="M5908 310 c12 -11 29 -20 40 -20 10 0 27 -7 38 -15 10 -8 34 -15 52
-15 18 0 41 -4 50 -9 10 -5 46 -12 82 -15 35 -3 66 -10 69 -14 9 -13 85 -30
169 -38 39 -3 72 -10 72 -14 0 -4 64 -10 143 -14 78 -3 184 -9 236 -12 57 -4
96 -3 100 3 7 11 184 33 266 33 30 0 55 5 55 10 0 6 22 10 48 10 46 0 157 32
177 51 5 5 -5 9 -27 9 -20 0 -38 -5 -40 -11 -3 -8 -31 -11 -81 -10 -65 1 -77
-1 -77 -15 0 -14 -10 -15 -80 -9 -61 5 -80 4 -80 -5 0 -10 -27 -12 -120 -7
-86 5 -120 4 -120 -4 0 -8 -17 -10 -50 -7 -27 3 -53 1 -58 -4 -10 -10 -445 42
-450 54 -2 5 -25 6 -52 2 -30 -4 -50 -2 -54 5 -4 6 -34 11 -67 11 -44 0 -61 4
-65 15 -4 10 -20 15 -45 15 -21 0 -39 3 -39 8 0 8 -71 32 -97 32 -14 0 -14 -3
5 -20z"/>
<path d="M7680 306 c0 -10 -22 -16 -80 -21 -71 -6 -80 -9 -80 -27 0 -16 4 -18
18 -12 9 4 45 10 80 12 42 2 62 8 62 17 0 7 9 15 21 18 12 3 18 10 14 16 -9
16 -35 13 -35 -3z"/>
<path d="M2698 3 c1486 -2 3918 -2 5405 0 1486 1 270 2 -2703 2 -2973 0 -4189
-1 -2702 -2z"/>
</g>
</svg>
