<svg xmlns="http://www.w3.org/2000/svg" width="800" height="800" fill="none" viewBox="0 0 24 24"><path fill="#212121" d="M3 6.25A3.25 3.25 0 0 1 6.25 3h11.5A3.25 3.25 0 0 1 21 6.25v11.5A3.25 3.25 0 0 1 17.75 21H6.25A3.25 3.25 0 0 1 3 17.75zm9 3.25a.75.75 0 0 0-.75.75v6a.25.25 0 0 1-.25.25H9.75a.75.75 0 0 0 0 1.5H11a1.75 1.75 0 0 0 1.75-1.75v-6A.75.75 0 0 0 12 9.5m2 1.75v1.5c0 .966.784 1.75 1.75 1.75h.5a.25.25 0 0 1 .25.25v1.5a.25.25 0 0 1-.25.25h-1.5a.75.75 0 0 0 0 1.5h1.5A1.75 1.75 0 0 0 18 16.25v-1.5A1.75 1.75 0 0 0 16.25 13h-.5a.25.25 0 0 1-.25-.25v-1.5a.25.25 0 0 1 .25-.25h1.5a.75.75 0 0 0 0-1.5h-1.5A1.75 1.75 0 0 0 14 11.25"/></svg>